HIERARCHY
ROOT pelvis
{
  OFFSET 0 100 0
  CHANNELS 6 Xposition Yposition Zposition Zrotation Xrotation Yrotation
  JOINT pelvis_right_femur
  {
    OFFSET -10.78128 -3.44521 -0.5502486
    CHANNELS 3 Zrotation Xrotation Yrotation
    JOINT right_femur_tibia
    {
      OFFSET -0.8047443 -44.0398 -0.1307829
      CHANNELS 3 Zrotation Xrotation Yrotation
      JOINT right_tibia_foot
      {
        OFFSET 3.006224 -47.83518 -5
        CHANNELS 3 Zrotation Xrotation Yrotation
        End Site
        {
          OFFSET 0 -5 15
        }
      }
    }
  }
  JOINT pelvis_left_femur
  {
    OFFSET 10.78128 -3.44521 -0.5502486
    CHANNELS 3 Zrotation Xrotation Yrotation
    JOINT left_femur_tibia
    {
      OFFSET 0.8047443 -44.0398 -0.1307829
      CHANNELS 3 Zrotation Xrotation Yrotation
      JOINT left_tibia_foot
      {
        OFFSET -4.370144 -48.10324 -4.275266
        CHANNELS 3 Zrotation Xrotation Yrotation
        End Site
        {
          OFFSET 0 -5 15
        }
      }
    }
  }
  JOINT pelvis_spine1
  {
    OFFSET 0 6.468898 -3.129235
    CHANNELS 3 Zrotation Xrotation Yrotation
    JOINT spine1
    {
      OFFSET 0 23.15396 4.99043
      CHANNELS 3 Zrotation Xrotation Yrotation
      JOINT spine2
      {
        OFFSET 0 20.79997 -5.064912
        CHANNELS 3 Zrotation Xrotation Yrotation
        JOINT neck
        {
          OFFSET 0 14.38658 9.616178
          CHANNELS 3 Zrotation Xrotation Yrotation
          End Site
          {
            OFFSET 0 20 0
          }
        }
      }
      JOINT right_manubrium
      {
        OFFSET -5.722621 16.35077 3.967754
        CHANNELS 3 Zrotation Xrotation Yrotation
        JOINT right_clavicle
        {
          OFFSET -13.16364 1.694482 -4.693211
          CHANNELS 3 Zrotation Xrotation Yrotation
          JOINT right_humerus
          {
            OFFSET -28.5034 -0.3100689 -2.792744
            CHANNELS 3 Zrotation Xrotation Yrotation
            JOINT right_radius
            {
              OFFSET -25.15693 0.02248979 -1.271978
              CHANNELS 3 Zrotation Xrotation Yrotation
              End Site
              {
                OFFSET -15 0 0
              }
            }
          }
        }
      }
      JOINT left_manubrium
      {
        OFFSET 5.722621 16.35077 3.967754
        CHANNELS 3 Zrotation Xrotation Yrotation
        JOINT left_clavicle
        {
          OFFSET 13.16364 1.694482 -4.693211
          CHANNELS 3 Zrotation Xrotation Yrotation
          JOINT left_humerus
          {
            OFFSET 29.39168 -1.063119 -2.237045
            CHANNELS 3 Zrotation Xrotation Yrotation
            JOINT left_radius
            {
              OFFSET 24.59957 -0.9528479 0.9047498
              CHANNELS 3 Zrotation Xrotation Yrotation
              End Site
              {
                OFFSET 15 -0 -0
              }
            }
          }
        }
      }
    }
  }
}
MOTION
Frames: 21
Frame Time: 0.0416666666667
0 103.5113 0 1.021409 -3.217254 -0.05839259 3.100028 -12.76332 8.339035 -0 39.20077 -0 -7.072128 -16.90055 -4.620983 -6.300785 11.48294 -23.03089 -0 5.272973 -0 8.247652 -14.99083 26.5733 -1.872904 -2.480486 5.817137 2.820163 9.465216 -7.623472 1.043473 20.59223 5.867458 2.934187 -25.72731 8.030102 5.474257 -20.11663 11.35196 84.69503 35.17221 -18.35747 -0 0 16.65425 -5.007637 5.930563 4.749228 5.673385 -20.32725 -0.6209724 -94.01911 25.60745 24.16382 0 0 -17.84851 8.882264 13.17776 4.236291
0.2917552 103.4765 1.592631 0.9209707 -2.199868 -0.1311263 3.635503 -15.26321 8.910091 -0 38.67342 -0 -6.205837 -17.28559 -4.514145 -6.510529 11.76316 -23.30872 -0 5.133951 -0 8.222723 -16.08962 26.5403 -1.934466 -2.511713 5.979942 2.737164 9.435825 -7.504729 1.04738 20.67491 5.74246 2.889966 -25.55354 7.900125 5.453127 -20.28563 11.32412 84.30667 35.13064 -17.83684 -0 0 17.05284 -5.070596 5.782548 4.82856 5.540359 -20.1603 -0.5866023 -94.26966 25.739 24.6371 0 0 -17.36562 8.631089 13.22955 4.490844
0.5569447 103.3238 3.219237 0.7865695 -1.267524 -0.1431124 3.783976 -18.14031 8.796608 -0 36.95002 -0 -5.629907 -15.99209 -3.954482 -6.674777 12.25028 -23.47679 -0 4.931294 -0 6.486067 -18.26927 26.07995 -1.731524 -2.394479 5.456398 2.93046 9.455998 -7.855522 1.064112 20.50721 6.16766 2.980476 -25.99323 8.369476 5.470994 -19.72036 11.3624 85.62814 35.31082 -19.53088 -0 0 15.70049 -5.200808 6.612599 4.711242 5.843002 -20.6358 -0.7097789 -93.60987 26.0872 23.32544 0 0 -19.19044 8.518826 13.25922 4.949334
0.8109135 103.0649 4.896538 0.6374751 -0.3051624 -0.08618182 4.162127 -20.90629 8.763624 -0 35.03883 -0 -5.082409 -15.12872 -3.544209 -6.794067 12.51375 -23.36657 -0 4.721451 -0 5.595529 -19.87521 25.57642 -1.624556 -2.328869 5.179084 3.026124 9.468896 -8.037844 1.072382 20.42129 6.395403 3.032054 -26.20395 8.614757 5.480594 -19.42076 11.38295 86.32752 35.40179 -20.41163 -0 0 14.98852 -5.316864 7.090394 4.668464 5.997739 -20.88645 -0.7816267 -93.25418 26.26559 22.6319 0 0 -20.14153 8.43165 13.27642 5.223798
1.054817 102.6399 6.772838 0.4516103 0.639529 0.04878331 4.643961 -24.05773 8.264245 -0 31.77761 -0 -4.784498 -13.45022 -3.022167 -6.855573 12.76835 -22.65433 -0 4.715229 -0 5.015733 -21.40385 24.75528 -1.484315 -2.250704 4.830376 3.146342 9.481057 -8.272794 1.084078 20.3123 6.677539 3.096747 -26.46512 8.92073 5.494812 -19.05318 11.40659 87.22302 35.5022 -21.5442 -0 0 14.11273 -5.433367 7.688278 4.598136 6.188278 -21.20341 -0.874988 -92.83353 26.53825 21.79573 0 0 -21.35251 8.268663 13.3178 5.644052
1.294857 102.0412 8.942763 0.2203165 1.607617 0.2687838 5.226054 -27.2366 7.633447 -0 27.98325 -0 -4.622054 -11.58217 -2.511096 -6.857882 12.98615 -21.60557 -0 4.885639 -0 4.756661 -22.61762 23.73865 -1.364426 -2.176631 4.525916 3.243493 9.497143 -8.472063 1.092368 20.21963 6.928563 3.159302 -26.66662 9.182749 5.508218 -18.72907 11.4292 87.9966 35.58955 -22.50357 -0 0 13.34932 -5.600652 8.254139 4.564735 6.351432 -21.47954 -0.9647543 -92.44738 26.74057 21.05203 0 0 -22.38057 8.122873 13.34637 6.005873
1.535983 101.2699 11.53877 -0.09140391 2.623279 0.5839041 5.885319 -30.43127 6.825447 -0 23.61724 -0 -4.667951 -9.356774 -1.965004 -6.775297 13.19835 -20.18974 -0 5.429574 -0 4.611377 -23.49395 22.39299 -1.251029 -2.09986 4.23396 3.326499 9.514694 -8.65732 1.099388 20.13645 7.174527 3.223449 -26.82996 9.43011 5.521096 -18.41485 11.4508 88.73433 35.67622 -23.40118 -0 0 12.61804 -5.831233 8.848717 4.561515 6.50086 -21.74255 -1.060239 -92.06686 26.93473 20.33617 0 0 -23.35224 7.941809 13.37558 6.400349
1.783512 100.3625 14.69042 -0.5204454 3.710219 1.005473 6.593033 -33.41007 5.968331 -0 19.11491 -0 -4.936038 -6.946095 -1.393227 -6.577189 13.39525 -18.54786 -0 6.547042 -0 4.275935 -23.91759 20.63033 -1.155587 -2.021337 3.974356 3.38626 9.536223 -8.811765 1.103412 20.0704 7.402383 3.286086 -26.93321 9.644894 5.531649 -18.12526 11.47137 89.37744 35.76478 -24.15641 -0 0 11.95808 -6.153508 9.454259 4.609891 6.625625 -21.97422 -1.157577 -91.69674 27.07759 19.67323 0 0 -24.19035 7.75244 13.39187 6.77562
2.041404 99.39137 18.52736 -1.097692 4.829503 1.540559 7.309983 -35.84298 5.177913 -0 14.95158 -0 -5.447151 -4.538116 -0.8275929 -6.219405 13.57678 -16.81551 -0 8.563207 -0 3.394796 -23.71337 18.35431 -1.080599 -1.939899 3.750671 3.41875 9.561358 -8.931288 1.104358 20.02521 7.611396 3.345674 -26.96756 9.824536 5.538501 -17.86044 11.49021 89.91589 35.8606 -24.75452 -0 0 11.37227 -6.589363 10.07896 4.721163 6.721437 -22.17065 -1.257659 -91.33597 27.17436 19.06604 0 0 -24.88901 7.541206 13.39422 7.146783
2.311522 98.47347 23.14587 -1.812302 5.841085 2.175074 7.988259 -37.22762 4.639822 -0 11.8434 -0 -6.148789 -2.505572 -0.3762174 -5.674506 13.73757 -15.20473 -0 11.89455 -0 1.688964 -22.64057 15.62814 -1.032548 -1.855376 3.5744 3.417429 9.590785 -9.005839 1.10159 20.00648 7.794971 3.399347 -26.91839 9.959706 5.539504 -17.6274 11.50682 90.31734 35.96728 -25.1512 -0 0 10.88047 -7.164402 10.71829 4.912193 6.780591 -22.32092 -1.359065 -90.98697 27.2113 18.52866 0 0 -25.41214 7.309872 13.3756 7.502935
2.593549 97.77226 28.56618 -2.562875 6.444676 2.842755 8.552629 -36.94942 4.501318 -0 10.55733 -0 -6.946717 -1.228699 -0.2017031 -4.973242 13.82492 -13.92408 -0 17.05847 -0 -0.7758638 -20.46578 12.81789 -1.017473 -1.768098 3.459026 3.374395 9.623817 -9.024044 1.094935 20.02093 7.945439 3.443707 -26.77025 10.04061 5.531897 -17.43601 11.52004 90.54675 36.08638 -25.29985 -0 0 10.50901 -7.902103 11.36428 5.198996 6.79388 -22.41155 -1.460136 -90.66006 27.18758 18.08649 0 0 -25.72292 7.047046 13.33203 7.851058
2.884387 97.48311 34.68657 -3.135333 6.214885 3.403009 8.884995 -34.50611 4.701172 -0 11.47376 -0 -7.809379 -0.7848651 -0.3989847 -4.237226 13.62611 -13.03942 -0 24.51908 -0 -3.403876 -17.17721 10.58514 -1.042437 -1.67976 3.42414 3.279436 9.658542 -8.970193 1.084577 20.07698 8.05111 3.474437 -26.50608 10.05421 5.511947 -17.30356 11.52814 90.55524 36.21496 -25.13746 -0 0 10.30094 -8.820483 11.9961 5.596787 6.74937 -22.42262 -1.557174 -90.37826 27.10836 17.7855 0 0 -25.76828 6.735612 13.26055 8.204115
3.171966 97.78668 41.26069 -3.292172 4.822629 3.686967 8.89674 -29.84474 4.930486 -0 14.06268 -0 -8.819966 -0.8177626 -0.856251 -3.628025 12.65706 -12.3563 -0 34.26372 -0 -5.333862 -13.18136 9.52277 -1.113634 -1.593347 3.493766 3.120454 9.691252 -8.825444 1.071381 20.18396 8.098321 3.487267 -26.11012 9.986927 5.475115 -17.25437 11.52888 90.2864 36.34374 -24.59294 -0 0 10.31405 -9.92895 12.58252 6.116913 6.633588 -22.32889 -1.644801 -90.18029 26.99399 17.69454 0 0 -25.48718 6.344736 13.16175 8.594048
3.425919 98.76173 47.92187 -2.963565 2.373325 3.613671 8.658071 -23.54342 4.929453 -0 16.92982 -0 -9.948327 -1.040072 -1.329807 -3.200021 10.24221 -11.54689 -0 45.21376 -0 -6.132068 -9.21603 9.717794 -1.234271 -1.512108 3.691722 2.885444 9.717656 -8.571147 1.056841 20.34954 8.07572 3.479665 -25.57197 9.828853 5.416493 -17.31526 11.52069 89.68931 36.45571 -23.60189 -0 0 10.60944 -11.23127 13.09133 6.766421 6.434772 -22.10484 -1.717189 -90.11355 26.87516 17.89277 0 0 -24.82509 5.833856 13.03765 9.069115
3.606583 100.2809 54.28443 -2.320661 -0.5187756 3.23174 8.336824 -16.60033 4.741575 -0 18.58115 -0 -10.8013 -1.779998 -1.696236 -2.813108 5.911822 -10.42287 -0 55.12659 -0 -6.129146 -6.037297 10.78006 -1.401944 -1.438085 4.03365 2.566363 9.73501 -8.195162 1.042814 20.5756 7.980063 3.45261 -24.89202 9.579457 5.33165 -17.50665 11.50415 88.74029 36.52552 -22.13251 -0 0 11.23063 -12.72921 13.50294 7.547543 6.148006 -21.73374 -1.770271 -90.21933 26.78075 18.4437 0 0 -23.75852 5.164164 12.88744 9.681961
3.701954 101.9811 60.117 -1.612469 -3.113132 2.635897 8.000509 -9.985027 4.533029 -0 18.17013 -0 -10.8351 -3.568413 -2.00908 -2.25476 -0.1035771 -8.989127 -0 61.39743 -0 -5.910771 -4.163226 12.23321 -1.607057 -1.371514 4.519091 2.164445 9.74393 -7.698997 1.031139 20.85418 7.819537 3.411045 -24.0883 9.25137 5.217831 -17.83378 11.48296 87.46359 36.52093 -20.2123 -0 0 12.18282 -14.41518 13.81463 8.453072 5.780604 -21.21706 -1.802913 -90.51702 26.72119 19.36653 0 0 -22.31635 4.320422 12.70331 10.46316
3.754995 103.4018 65.46588 -0.9879743 -5.002096 1.905927 7.59588 -4.251737 4.278608 -0 15.7842 -0 -9.906661 -6.270985 -2.272982 -1.425483 -6.788942 -7.312713 -0 62.30681 -0 -5.619474 -3.664686 13.7489 -1.832675 -1.311158 5.125127 1.69523 9.748618 -7.103811 1.023257 21.16539 7.613849 3.362826 -23.20237 8.871325 5.075723 -18.28013 11.46347 85.94447 36.41021 -17.94837 -0 0 13.418 -16.25413 14.03635 9.457463 5.355715 -20.58097 -1.817017 -90.99242 26.68028 20.61472 0 0 -20.59152 3.33107 12.47225 11.39589
3.845886 104.2071 70.58033 -0.5068116 -6.155974 1.110065 7.091442 0.5960778 3.813387 -0 12.35553 -0 -8.489758 -9.129865 -2.347094 -0.3657646 -12.99335 -5.527821 -0 57.84793 -0 -5.007501 -4.077796 15.12826 -2.056849 -1.254501 5.804794 1.189523 9.75567 -6.451376 1.019805 21.47967 7.391253 3.316547 -22.29667 8.476743 4.91102 -18.80568 11.45285 84.3235 36.17652 -15.52439 -0 0 14.83253 -18.17364 14.18716 10.51334 4.91087 -19.8763 -1.817548 -91.59236 26.62067 22.07049 0 0 -18.73352 2.272171 12.18365 12.40878
4.050176 104.2995 75.70706 -0.231927 -6.612499 0.3067816 6.526706 4.895754 3.200936 -0 9.202414 -0 -7.202737 -11.72244 -2.134605 0.8280644 -18.20784 -3.926369 -0 49.48255 -0 -4.13054 -4.702427 16.22929 -2.257998 -1.197745 6.496159 0.6865691 9.772062 -5.79512 1.020444 21.76534 7.181728 3.278849 -21.43869 8.106694 4.733787 -19.35486 11.45653 82.76126 35.82958 -13.15664 -0 0 16.28904 -20.07871 14.29375 11.56209 4.488831 -19.16669 -1.81205 -92.2337 26.49998 23.5695 0 0 -16.91215 1.246306 11.83676 13.39681
4.407476 103.7675 80.97639 -0.1962136 -6.391084 -0.4563054 5.915239 8.932013 2.79712 -0 7.406497 -0 -6.233902 -14.248 -1.718032 2.009464 -22.44527 -2.859405 -0 39.26842 -0 -3.545109 -5.088298 16.97755 -2.420759 -1.136609 7.140215 0.2222879 9.802885 -5.184298 1.02426 21.99795 7.008315 3.252528 -20.6808 7.791079 4.555216 -19.87322 11.47651 81.3887 35.40197 -11.02788 -0 0 17.65781 -21.88018 14.38446 12.55163 4.124838 -18.50915 -1.808561 -92.82924 26.28841 24.95172 0 0 -15.26704 0.3471507 11.44202 14.25947
4.912977 102.7782 86.44583 -0.308845 -5.723846 -1.137024 5.200809 12.70888 2.83753 -0 7.421919 -0 -5.375624 -16.64307 -1.260584 2.91937 -25.6168 -2.510346 -0 29.27682 -0 -3.706833 -5.229149 17.45085 -2.538521 -1.067958 7.695206 -0.1790753 9.849639 -4.652499 1.030462 22.16557 6.882001 3.236644 -20.05011 7.544995 4.384322 -20.32149 11.51096 80.27889 34.93398 -9.246985 -0 0 18.84888 -23.51216 14.48025 13.44594 3.838853 -17.94058 -1.813064 -93.31436 25.979 26.10472 0 0 -13.87863 -0.3665221 11.01729 14.93084
